<svg viewBox="0 0 1717.7833251953125 400" xmlns="http://www.w3.org/2000/svg"><g><g><g><g><g><line x1="49.98400115966797" y1="377.5999994277954" x2="44.98400115966797" y2="377.5999994277954" style="visibility: inherit;" fill="rgb(0, 0, 0)" stroke="rgb(204, 204, 204)" stroke-width="1px"></line><line x1="49.98400115966797" y1="343.27272675254125" x2="44.98400115966797" y2="343.27272675254125" style="visibility: inherit;" fill="rgb(0, 0, 0)" stroke="rgb(204, 204, 204)" stroke-width="1px"></line><line x1="49.98400115966797" y1="308.9454540772873" x2="44.98400115966797" y2="308.9454540772873" style="visibility: inherit;" fill="rgb(0, 0, 0)" stroke="rgb(204, 204, 204)" stroke-width="1px"></line><line x1="49.98400115966797" y1="274.61818140203314" x2="44.98400115966797" y2="274.61818140203314" style="visibility: inherit;" fill="rgb(0, 0, 0)" stroke="rgb(204, 204, 204)" stroke-width="1px"></line><line x1="49.98400115966797" y1="240.29090872677892" x2="44.98400115966797" y2="240.29090872677892" style="visibility: inherit;" fill="rgb(0, 0, 0)" stroke="rgb(204, 204, 204)" stroke-width="1px"></line><line x1="49.98400115966797" y1="205.9636360515248" x2="44.98400115966797" y2="205.9636360515248" style="visibility: inherit;" fill="rgb(0, 0, 0)" stroke="rgb(204, 204, 204)" stroke-width="1px"></line><line x1="49.98400115966797" y1="171.63636337627062" x2="44.98400115966797" y2="171.63636337627062" style="visibility: inherit;" fill="rgb(0, 0, 0)" stroke="rgb(204, 204, 204)" stroke-width="1px"></line><line x1="49.98400115966797" y1="137.3090907010165" x2="44.98400115966797" y2="137.3090907010165" style="visibility: inherit;" fill="rgb(0, 0, 0)" stroke="rgb(204, 204, 204)" stroke-width="1px"></line><line x1="49.98400115966797" y1="102.98181802576251" x2="44.98400115966797" y2="102.98181802576251" style="visibility: inherit;" fill="rgb(0, 0, 0)" stroke="rgb(204, 204, 204)" stroke-width="1px"></line><line x1="49.98400115966797" y1="68.65454535050831" x2="44.98400115966797" y2="68.65454535050831" style="visibility: inherit;" fill="rgb(0, 0, 0)" stroke="rgb(204, 204, 204)" stroke-width="1px"></line><line x1="49.98400115966797" y1="34.32727267525418" x2="44.98400115966797" y2="34.32727267525418" style="visibility: inherit;" fill="rgb(0, 0, 0)" stroke="rgb(204, 204, 204)" stroke-width="1px"></line><line x1="49.98400115966797" y1="0" x2="44.98400115966797" y2="0" style="visibility: inherit;" fill="rgb(0, 0, 0)" stroke="rgb(204, 204, 204)" stroke-width="1px"></line></g><g transform="translate(39.98400115966797, 0)"><text style="text-anchor: end; visibility: hidden; font-family: Roboto, sans-serif; font-size: 12px; font-weight: 200;" x="0" y="377.5999994277954" dx="0em" dy="0.3em" fill="rgb(255, 255, 255)" stroke="none" stroke-width="1px">0.78</text><text style="text-anchor: end; visibility: inherit; font-family: Roboto, sans-serif; font-size: 12px; font-weight: 200;" x="0" y="343.27272675254125" dx="0em" dy="0.3em" fill="rgb(255, 255, 255)" stroke="none" stroke-width="1px">0.8</text><text style="text-anchor: end; visibility: inherit; font-family: Roboto, sans-serif; font-size: 12px; font-weight: 200;" x="0" y="308.9454540772873" dx="0em" dy="0.3em" fill="rgb(255, 255, 255)" stroke="none" stroke-width="1px">0.82</text><text style="text-anchor: end; visibility: inherit; font-family: Roboto, sans-serif; font-size: 12px; font-weight: 200;" x="0" y="274.61818140203314" dx="0em" dy="0.3em" fill="rgb(255, 255, 255)" stroke="none" stroke-width="1px">0.84</text><text style="text-anchor: end; visibility: inherit; font-family: Roboto, sans-serif; font-size: 12px; font-weight: 200;" x="0" y="240.29090872677892" dx="0em" dy="0.3em" fill="rgb(255, 255, 255)" stroke="none" stroke-width="1px">0.86</text><text style="text-anchor: end; visibility: inherit; font-family: Roboto, sans-serif; font-size: 12px; font-weight: 200;" x="0" y="205.9636360515248" dx="0em" dy="0.3em" fill="rgb(255, 255, 255)" stroke="none" stroke-width="1px">0.88</text><text style="text-anchor: end; visibility: inherit; font-family: Roboto, sans-serif; font-size: 12px; font-weight: 200;" x="0" y="171.63636337627062" dx="0em" dy="0.3em" fill="rgb(255, 255, 255)" stroke="none" stroke-width="1px">0.9</text><text style="text-anchor: end; visibility: inherit; font-family: Roboto, sans-serif; font-size: 12px; font-weight: 200;" x="0" y="137.3090907010165" dx="0em" dy="0.3em" fill="rgb(255, 255, 255)" stroke="none" stroke-width="1px">0.92</text><text style="text-anchor: end; visibility: inherit; font-family: Roboto, sans-serif; font-size: 12px; font-weight: 200;" x="0" y="102.98181802576251" dx="0em" dy="0.3em" fill="rgb(255, 255, 255)" stroke="none" stroke-width="1px">0.94</text><text style="text-anchor: end; visibility: inherit; font-family: Roboto, sans-serif; font-size: 12px; font-weight: 200;" x="0" y="68.65454535050831" dx="0em" dy="0.3em" fill="rgb(255, 255, 255)" stroke="none" stroke-width="1px">0.96</text><text style="text-anchor: end; visibility: inherit; font-family: Roboto, sans-serif; font-size: 12px; font-weight: 200;" x="0" y="34.32727267525418" dx="0em" dy="0.3em" fill="rgb(255, 255, 255)" stroke="none" stroke-width="1px">0.98</text><text style="text-anchor: end; visibility: hidden; font-family: Roboto, sans-serif; font-size: 12px; font-weight: 200;" x="0" y="0" dx="0em" dy="0.3em" fill="rgb(255, 255, 255)" stroke="none" stroke-width="1px">1</text></g><line x1="49.98400115966797" y1="0" x2="49.98400115966797" y2="377.5999994277954" fill="rgb(0, 0, 0)" stroke="rgb(204, 204, 204)" stroke-width="1px"></line></g></g><g transform="translate(49, 0)" clip-path="url(#clip_0)"><clipPath id="clip_0"><rect width="1667" height="377"></rect></clipPath><g><g><g><line x1="0" y1="0" x2="0" y2="377.5999994277954" fill="rgb(0, 0, 0)" stroke="rgb(189, 189, 189)" stroke-width="1px" opacity="0.25"></line><line x1="119.12828563145229" y1="0" x2="119.12828563145229" y2="377.5999994277954" fill="rgb(0, 0, 0)" stroke="rgb(189, 189, 189)" stroke-width="1px" opacity="0.25"></line><line x1="238.25657126290457" y1="0" x2="238.25657126290457" y2="377.5999994277954" fill="rgb(0, 0, 0)" stroke="rgb(189, 189, 189)" stroke-width="1px" opacity="0.25"></line><line x1="357.38485689435686" y1="0" x2="357.38485689435686" y2="377.5999994277954" fill="rgb(0, 0, 0)" stroke="rgb(189, 189, 189)" stroke-width="1px" opacity="0.25"></line><line x1="476.51314252580914" y1="0" x2="476.51314252580914" y2="377.5999994277954" fill="rgb(0, 0, 0)" stroke="rgb(189, 189, 189)" stroke-width="1px" opacity="0.25"></line><line x1="595.6414281572614" y1="0" x2="595.6414281572614" y2="377.5999994277954" fill="rgb(0, 0, 0)" stroke="rgb(189, 189, 189)" stroke-width="1px" opacity="0.25"></line><line x1="714.7697137887137" y1="0" x2="714.7697137887137" y2="377.5999994277954" fill="rgb(0, 0, 0)" stroke="rgb(189, 189, 189)" stroke-width="1px" opacity="0.25"></line><line x1="833.897999420166" y1="0" x2="833.897999420166" y2="377.5999994277954" fill="rgb(0, 0, 0)" stroke="rgb(189, 189, 189)" stroke-width="1px" opacity="0.25"></line><line x1="953.0262850516183" y1="0" x2="953.0262850516183" y2="377.5999994277954" fill="rgb(0, 0, 0)" stroke="rgb(189, 189, 189)" stroke-width="1px" opacity="0.25"></line><line x1="1072.1545706830707" y1="0" x2="1072.1545706830707" y2="377.5999994277954" fill="rgb(0, 0, 0)" stroke="rgb(189, 189, 189)" stroke-width="1px" opacity="0.25"></line><line x1="1191.2828563145229" y1="0" x2="1191.2828563145229" y2="377.5999994277954" fill="rgb(0, 0, 0)" stroke="rgb(189, 189, 189)" stroke-width="1px" opacity="0.25"></line><line x1="1310.411141945975" y1="0" x2="1310.411141945975" y2="377.5999994277954" fill="rgb(0, 0, 0)" stroke="rgb(189, 189, 189)" stroke-width="1px" opacity="0.25"></line><line x1="1429.5394275774274" y1="0" x2="1429.5394275774274" y2="377.5999994277954" fill="rgb(0, 0, 0)" stroke="rgb(189, 189, 189)" stroke-width="1px" opacity="0.25"></line><line x1="1548.6677132088798" y1="0" x2="1548.6677132088798" y2="377.5999994277954" fill="rgb(0, 0, 0)" stroke="rgb(189, 189, 189)" stroke-width="1px" opacity="0.25"></line><line x1="1667.795998840332" y1="0" x2="1667.795998840332" y2="377.5999994277954" fill="rgb(0, 0, 0)" stroke="rgb(189, 189, 189)" stroke-width="1px" opacity="0.25"></line></g><g><line x1="0" y1="377.5999994277954" x2="1667.795998840332" y2="377.5999994277954" fill="rgb(0, 0, 0)" stroke="rgb(189, 189, 189)" stroke-width="1px" opacity="0.25"></line><line x1="0" y1="343.27272675254125" x2="1667.795998840332" y2="343.27272675254125" fill="rgb(0, 0, 0)" stroke="rgb(189, 189, 189)" stroke-width="1px" opacity="0.25"></line><line x1="0" y1="308.9454540772873" x2="1667.795998840332" y2="308.9454540772873" fill="rgb(0, 0, 0)" stroke="rgb(189, 189, 189)" stroke-width="1px" opacity="0.25"></line><line x1="0" y1="274.61818140203314" x2="1667.795998840332" y2="274.61818140203314" fill="rgb(0, 0, 0)" stroke="rgb(189, 189, 189)" stroke-width="1px" opacity="0.25"></line><line x1="0" y1="240.29090872677892" x2="1667.795998840332" y2="240.29090872677892" fill="rgb(0, 0, 0)" stroke="rgb(189, 189, 189)" stroke-width="1px" opacity="0.25"></line><line x1="0" y1="205.9636360515248" x2="1667.795998840332" y2="205.9636360515248" fill="rgb(0, 0, 0)" stroke="rgb(189, 189, 189)" stroke-width="1px" opacity="0.25"></line><line x1="0" y1="171.63636337627062" x2="1667.795998840332" y2="171.63636337627062" fill="rgb(0, 0, 0)" stroke="rgb(189, 189, 189)" stroke-width="1px" opacity="0.25"></line><line x1="0" y1="137.3090907010165" x2="1667.795998840332" y2="137.3090907010165" fill="rgb(0, 0, 0)" stroke="rgb(189, 189, 189)" stroke-width="1px" opacity="0.25"></line><line x1="0" y1="102.98181802576251" x2="1667.795998840332" y2="102.98181802576251" fill="rgb(0, 0, 0)" stroke="rgb(189, 189, 189)" stroke-width="1px" opacity="0.25"></line><line x1="0" y1="68.65454535050831" x2="1667.795998840332" y2="68.65454535050831" fill="rgb(0, 0, 0)" stroke="rgb(189, 189, 189)" stroke-width="1px" opacity="0.25"></line><line x1="0" y1="34.32727267525418" x2="1667.795998840332" y2="34.32727267525418" fill="rgb(0, 0, 0)" stroke="rgb(189, 189, 189)" stroke-width="1px" opacity="0.25"></line><line x1="0" y1="0" x2="1667.795998840332" y2="0" fill="rgb(0, 0, 0)" stroke="rgb(189, 189, 189)" stroke-width="1px" opacity="0.25"></line></g></g></g><g><g><line x1="0" y1="1716.3636337627065" x2="1667.795998840332" y2="1716.3636337627065" fill="rgb(0, 0, 0)" stroke="rgb(153, 153, 153)" stroke-width="1.5px"></line></g></g><g><g><line x1="119.12828563145229" y1="0" x2="119.12828563145229" y2="377.5999994277954" fill="rgb(0, 0, 0)" stroke="rgb(153, 153, 153)" stroke-width="1.5px"></line></g></g><g><g><g><g><g><path style="fill: none;" stroke="rgb(0, 153, 136)" stroke-width="2px" d="M119.12828563145229,354.7739439703311L142.95394275774274,310.0978612535525L166.77959988403322,270.997535033042L190.60525701032364,275.2789331155852L214.4309141366141,264.84266585258126L238.25657126290457,264.36469667724964L262.08222838919505,265.6482709663135L285.9078855154855,273.52546801024823L309.73354264177595,279.8789180047L333.55919976806643,278.0716050841264L357.38485689435686,286.05397528626776L381.2105140206473,288.62058663935244L405.03617114693776,293.9192805300937L428.8618282732282,301.17535634840135L452.68748539951866,304.19593952437367L476.51314252580914,298.99468327043695L500.33879965209957,302.6576171102571L524.1644567783901,302.3345455395428L547.9901139046805,299.8036477062887L571.815771030971,302.59261824902205L595.6414281572614,302.84544405975515L619.4670852835519,301.98902655442134L643.2927424098424,314.8093707194275L667.1183995361329,312.83311432222234L690.9440566624233,319.25379803067074L714.7697137887137,317.3784736598585L738.5953709150042,318.8651265162889L762.4210280412946,308.622425265895L786.246685167585,313.24492467513204L810.0723422938755,307.99960668953713L833.897999420166,309.8469844727711L857.7236565464564,310.6346698275863L881.549313672747,307.80812396526625L905.3749707990373,305.4706733290384L929.2006279253278,301.77714224646365L953.0262850516183,308.63368468373926L976.8519421779088,307.432301765234L1000.6775993041991,312.1642759027218L1024.5032564304897,311.2002349406842L1048.3289135567802,315.11234991481507L1072.1545706830707,311.5027874016167L1095.980227809361,318.3639199201728L1119.8058849356514,315.1033078455581L1143.631542061942,324.51070318157696L1167.4571991882324,319.84530582971354L1191.2828563145229,320.20772873577863L1215.1085134408133,316.43871148254283L1238.9341705671038,321.05056508638376L1262.7598276933943,325.42142383379337L1286.5854848196848,328.54796670817274L1310.411141945975,325.33770247686635L1334.2367990722657,325.15274516282034L1358.062456198556,318.5809525801595L1381.8881133248467,323.9854881836295L1405.713770451137,314.8105189406269L1429.5394275774274,312.5130714864275L1453.365084703718,310.1723386942992L1477.1907418300084,317.7031053320551L1501.0163989562989,318.3725489575698L1524.8420560825891,318.5909286396816" fill="none"></path></g><g><path style="fill: none;" stroke="rgb(238, 51, 119)" stroke-width="2px" d="M119.12828563145229,222.2210620633767L142.95394275774274,158.24553617425886L166.77959988403322,128.7685199477715L190.60525701032364,110.23595864629755L214.4309141366141,98.3112066703334L238.25657126290457,89.38747104150987L262.08222838919505,82.89302144733266L285.9078855154855,77.61161562621092L309.73354264177595,73.11137642592412L333.55919976806643,70.09468712211962L357.38485689435686,66.70968017870759L381.2105140206473,63.94028348690414L405.03617114693776,61.69747028481894L428.8618282732282,59.631363615363284L452.68748539951866,57.59042440741938L476.51314252580914,56.091447423296266L500.33879965209957,54.642338424070246L524.1644567783901,53.10848249699012L547.9901139046805,51.351950039626104L571.815771030971,50.18351524733674L595.6414281572614,48.76073694969345L619.4670852835519,47.54047121348705L643.2927424098424,45.92617466615793L667.1183995361329,44.7972335706096L690.9440566624233,43.78763137483157L714.7697137887137,42.929837190820514L738.5953709150042,42.42661959202118L762.4210280412946,41.265505264493115L786.246685167585,40.637544008771L810.0723422938755,39.745240778778225L833.897999420166,38.63704256335015L857.7236565464564,37.82321111334056L881.549313672747,37.18599967469731L905.3749707990373,36.72346708484598L929.2006279253278,35.96479491069161L953.0262850516183,35.10860381250031L976.8519421779088,34.4803504457669L1000.6775993041991,34.36689066623234L1024.5032564304897,33.64579272578425L1048.3289135567802,33.48808416335519L1072.1545706830707,32.99251214909964L1095.980227809361,32.59204727009744L1119.8058849356514,32.08827610570505L1143.631542061942,31.35069264025735L1167.4571991882324,30.656108287411882L1191.2828563145229,30.330980461705888L1215.1085134408133,30.09011283396773L1238.9341705671038,30.220501536483347L1262.7598276933943,29.989451588622437L1286.5854848196848,29.243631401984093L1310.411141945975,29.403329507926717L1334.2367990722657,29.430400591056003L1358.062456198556,28.94257469366725L1381.8881133248467,27.699031877732857L1405.713770451137,27.479849740952854L1429.5394275774274,27.130680075469648L1453.365084703718,27.047215873645072L1477.1907418300084,26.76801900572965L1501.0163989562989,26.10789030112092L1524.8420560825891,26.353336265194486" fill="none"></path></g><g><path style="fill: none;" stroke="rgb(255, 112, 67)" stroke-width="2px" d="M119.12828563145229,315.36734793296756L142.95394275774274,276.9201261485503L166.77959988403322,270.4691888818997L190.60525701032364,262.621940703135L214.4309141366141,246.74461670776532L238.25657126290457,242.7092779496789L262.08222838919505,246.02184096627332L285.9078855154855,256.52422664955037L309.73354264177595,254.93521198822637L333.55919976806643,249.56647828167957L357.38485689435686,252.11465860339197L381.2105140206473,260.9850908012333L405.03617114693776,256.2927782941414L428.8618282732282,242.97992480346437L452.68748539951866,245.90958950563888L476.51314252580914,253.39583593772065L500.33879965209957,250.00357844122505L524.1644567783901,256.2631579093118L547.9901139046805,253.09898124619573L571.815771030971,252.02543849012446L595.6414281572614,248.8152707608565L619.4670852835519,250.3717044013748L643.2927424098424,254.65056662227988L667.1183995361329,251.16937939265966L690.9440566624233,242.84887820465818L714.7697137887137,248.53305930250866L738.5953709150042,242.3668224540905L762.4210280412946,248.74788862183487L786.246685167585,254.36355955138274L810.0723422938755,253.79227984930063L833.897999420166,257.52764735378025L857.7236565464564,266.8712094856758L881.549313672747,267.2078695881764L905.3749707990373,265.30209136788096L929.2006279253278,268.64912317052284L953.0262850516183,275.05621809738466L976.8519421779088,274.68488564158594L1000.6775993041991,282.4350691139032L1024.5032564304897,276.7294718295224L1048.3289135567802,271.74819873342074L1072.1545706830707,269.9507766261087L1095.980227809361,275.1957278416337L1119.8058849356514,276.3723380759228L1143.631542061942,277.12413606991055L1167.4571991882324,279.08733866557725L1191.2828563145229,273.25454162729807L1215.1085134408133,284.18866451404614L1238.9341705671038,277.4150560957736L1262.7598276933943,289.9383391401118L1286.5854848196848,285.53868690870274L1310.411141945975,279.5997386923176L1334.2367990722657,277.8234028408565L1358.062456198556,282.6686009659225L1381.8881133248467,278.93157423223266L1405.713770451137,290.8482500218261L1429.5394275774274,298.3189966283476L1453.365084703718,292.35411448002526L1477.1907418300084,283.7347861674643L1501.0163989562989,286.7652904414702L1524.8420560825891,286.6590643666556" fill="none"></path></g><g><path style="fill: none;" stroke="rgb(187, 187, 187)" stroke-width="2px" d="M119.12828563145229,175.59451683485L142.95394275774274,129.59079376003132L166.77959988403322,108.01185552616865L190.60525701032364,94.2799073718358L214.4309141366141,86.02110377341663L238.25657126290457,78.73307346995432L262.08222838919505,72.94586957307035L285.9078855154855,69.00805335032508L309.73354264177595,65.35725094602604L333.55919976806643,61.46159759229617L357.38485689435686,59.40378766941091L381.2105140206473,56.2335571211219L405.03617114693776,54.16378790197082L428.8618282732282,52.453594797146714L452.68748539951866,50.44261148961149L476.51314252580914,49.11059458647014L500.33879965209957,47.45225502815287L524.1644567783901,45.59816012260034L547.9901139046805,44.26810912840141L571.815771030971,43.37850426852229L595.6414281572614,42.31776613452077L619.4670852835519,41.326177527735425L643.2927424098424,39.83766819944363L667.1183995361329,39.620470405566735L690.9440566624233,38.61946745756882L714.7697137887137,37.46896617121673L738.5953709150042,36.698501750843604L762.4210280412946,35.514453308087845L786.246685167585,35.113348912424115L810.0723422938755,34.17387321125357L833.897999420166,33.6560197831783L857.7236565464564,33.13910533387506L881.549313672747,32.61125537551399L905.3749707990373,32.18000670058618L929.2006279253278,31.49735377152831L953.0262850516183,30.686815140856584L976.8519421779088,30.486900133427014L1000.6775993041991,30.11491685519251L1024.5032564304897,29.65115057837352L1048.3289135567802,29.338516922679318L1072.1545706830707,28.92181838252578L1095.980227809361,28.557219624533026L1119.8058849356514,28.57903668014591L1143.631542061942,28.443214310504384L1167.4571991882324,27.926359200562057L1191.2828563145229,27.53608131208224L1215.1085134408133,26.923842707897887L1238.9341705671038,26.613789362433003L1262.7598276933943,26.58812792154577L1286.5854848196848,26.02287157741775L1310.411141945975,25.8211724105182L1334.2367990722657,25.665779020161292L1358.062456198556,25.67566465660069L1381.8881133248467,24.810913583506416L1405.713770451137,24.60138703031279L1429.5394275774274,24.578751847752503L1453.365084703718,24.118392007980404L1477.1907418300084,24.19733204840327L1501.0163989562989,24.084284584973986L1524.8420560825891,24.085203887352268" fill="none"></path></g><g><path style="fill: none;" stroke="rgb(51, 187, 238)" stroke-width="2px" d="M119.12828563145229,271.7222261646113L142.95394275774274,267.4980612515928L166.77959988403322,274.3289232785675L190.60525701032364,275.18415668167205L214.4309141366141,267.2732756512946L238.25657126290457,281.9730947273074L262.08222838919505,286.71152182246846L285.9078855154855,280.2871577802032L309.73354264177595,295.15639561916606L333.55919976806643,305.0417919018532L357.38485689435686,307.66942348512544L381.2105140206473,305.4284067559174L405.03617114693776,308.95038740555333L428.8618282732282,309.45558423099726L452.68748539951866,298.25182137413844L476.51314252580914,304.54994928918484L500.33879965209957,304.2488635993989L524.1644567783901,295.8653513798959L547.9901139046805,298.85505150466696L571.815771030971,297.67027125831885L595.6414281572614,299.61712282664803L619.4670852835519,301.51836205688153L643.2927424098424,302.6590895792571L667.1183995361329,302.65620295117L690.9440566624233,307.19081435632864L714.7697137887137,302.03024029692415L738.5953709150042,303.9743056775772L762.4210280412946,299.2755722484668L786.246685167585,297.41855779054754L810.0723422938755,296.80841821240443L833.897999420166,290.66878878966156L857.7236565464564,295.0037861424569L881.549313672747,291.00647026315306L905.3749707990373,290.3951549085801L929.2006279253278,292.2278036632202L953.0262850516183,287.55384783993486L976.8519421779088,286.85728952227703L1000.6775993041991,284.0107982602384L1024.5032564304897,281.294807334301L1048.3289135567802,283.3309426514521L1072.1545706830707,282.30739498751L1095.980227809361,282.1056303085883L1119.8058849356514,281.7554940757082L1143.631542061942,284.111423241248L1167.4571991882324,277.82694802523497L1191.2828563145229,271.5360429234554L1215.1085134408133,270.4191744747442L1238.9341705671038,277.9052818923465L1262.7598276933943,275.98191908081765L1286.5854848196848,275.3319699411862L1310.411141945975,282.50253761085196L1334.2367990722657,281.0313741375544L1358.062456198556,277.8117834956366L1381.8881133248467,276.24660209688426L1405.713770451137,279.8438237339391L1429.5394275774274,278.65716798499864L1453.365084703718,272.49241159334605L1477.1907418300084,281.6694441357735L1501.0163989562989,274.6663502702056L1524.8420560825891,272.02240868239153" fill="none"></path></g><g><path style="fill: none;" stroke="rgb(204, 51, 17)" stroke-width="2px" d="M119.12828563145229,183.64240618533626L142.95394275774274,137.79981072091368L166.77959988403322,115.55417894393891L190.60525701032364,101.05429057755086L214.4309141366141,90.70195976867011L238.25657126290457,82.71170566459863L262.08222838919505,77.09047708862256L285.9078855154855,72.65500778103204L309.73354264177595,68.23654124385519L333.55919976806643,64.47305824959052L357.38485689435686,61.321233723777375L381.2105140206473,59.59823462856703L405.03617114693776,56.58230553258518L428.8618282732282,55.01603600390905L452.68748539951866,53.309138338771L476.51314252580914,51.655270499613L500.33879965209957,50.51426971281805L524.1644567783901,48.07683287605691L547.9901139046805,47.004082785411775L571.815771030971,45.4783018967663L595.6414281572614,44.35666212318078L619.4670852835519,43.69515212088398L643.2927424098424,42.335897929767775L667.1183995361329,41.56618435596629L690.9440566624233,41.287686481599216L714.7697137887137,39.96349567112146L738.5953709150042,39.35226931127499L762.4210280412946,38.550212861583724L786.246685167585,37.438872930096046L810.0723422938755,36.76061126733204L833.897999420166,36.38802826041615L857.7236565464564,36.508176496130154L881.549313672747,35.69812497095138L905.3749707990373,35.18917815313193L929.2006279253278,34.574526897091616L953.0262850516183,33.32359572276812L976.8519421779088,32.6188688803386L1000.6775993041991,32.31057149085908L1024.5032564304897,32.05688619861335L1048.3289135567802,31.95046595601462L1072.1545706830707,32.207395864872076L1095.980227809361,31.89185915278102L1119.8058849356514,31.003724121553514L1143.631542061942,30.32188957867838L1167.4571991882324,30.004452560285728L1191.2828563145229,29.390086624523445L1215.1085134408133,29.445370787827812L1238.9341705671038,29.203591085358497L1262.7598276933943,28.646077502559038L1286.5854848196848,28.655267333767092L1310.411141945975,28.374373068640104L1334.2367990722657,28.068381869991143L1358.062456198556,27.919161041019954L1381.8881133248467,27.726506872984274L1405.713770451137,27.86294864579584L1429.5394275774274,27.463661089028726L1453.365084703718,26.994970208148022L1477.1907418300084,27.171992373261148L1501.0163989562989,26.155488943738963L1524.8420560825891,26.33606359714174" fill="none"></path></g><g><path style="fill: none;" stroke="rgb(204, 51, 17)" stroke-width="2px" d="M119.12828563145229,307.1194557391008L142.95394275774274,261.9422150023685L166.77959988403322,273.82866458764744L190.60525701032364,276.17726016394846L214.4309141366141,267.885295618884L238.25657126290457,268.9664841429881L262.08222838919505,261.1437052419838L285.9078855154855,260.6937713332387L309.73354264177595,269.6863169507637L333.55919976806643,267.9701244252381L357.38485689435686,262.4861828007335L381.2105140206473,257.3717153905101L405.03617114693776,254.860748008618L428.8618282732282,247.80749320344398L452.68748539951866,249.08030171716993L476.51314252580914,249.24774427412478L500.33879965209957,250.03561004943285L524.1644567783901,250.8290178664953L547.9901139046805,257.53713151240714L571.815771030971,250.7016060646257L595.6414281572614,244.6300879514608L619.4670852835519,246.07356015057303L643.2927424098424,248.1309824640311L667.1183995361329,250.60260491426556L690.9440566624233,248.92390058363594L714.7697137887137,243.93016232144925L738.5953709150042,247.85302770671842L762.4210280412946,246.861753582959L786.246685167585,249.33702916019666L810.0723422938755,249.6766428567814L833.897999420166,248.68906912352458L857.7236565464564,244.93482247780543L881.549313672747,240.8494096621046L905.3749707990373,243.66763869760675L929.2006279253278,241.00553200929383L953.0262850516183,244.67774452903677L976.8519421779088,243.58191511867702L1000.6775993041991,236.00536256324597L1024.5032564304897,238.24103131139245L1048.3289135567802,241.96515697183884L1072.1545706830707,241.72524424412703L1095.980227809361,241.35221918198994L1119.8058849356514,239.66211219882285L1143.631542061942,240.2976264482941L1167.4571991882324,242.0535632363782L1191.2828563145229,244.0693896287807L1215.1085134408133,244.36245299812245L1238.9341705671038,244.8132412201709L1262.7598276933943,243.52575850054887L1286.5854848196848,241.97429104236832L1310.411141945975,239.16471378186526L1334.2367990722657,237.20405814642442L1358.062456198556,237.81469784351336L1381.8881133248467,239.4640871141465L1405.713770451137,251.49674212197849L1429.5394275774274,253.0344538375626L1453.365084703718,249.64982781613213L1477.1907418300084,251.3306139208395L1501.0163989562989,252.24746279771435L1524.8420560825891,255.04284189582742" fill="none"></path></g><g><path style="fill: none;" stroke="rgb(0, 119, 187)" stroke-width="2px" d="M119.12828563145229,356.14378441680816L142.95394275774274,212.63733246398857L166.77959988403322,157.08983494834425L190.60525701032364,128.35859367865058L214.4309141366141,111.10768173368514L238.25657126290457,98.96586118896388L262.08222838919505,90.59230986044743L285.9078855154855,84.29921820645791L309.73354264177595,79.34184868402133L333.55919976806643,75.38532515422528L357.38485689435686,72.79682527297362L381.2105140206473,70.75602245690753L405.03617114693776,69.09849754138513L428.8618282732282,67.32573947990021L452.68748539951866,65.30021623852471L476.51314252580914,64.2459278043438L500.33879965209957,62.800014787490234L524.1644567783901,60.83275204655146L547.9901139046805,59.182758074771606L571.815771030971,58.593828501405035L595.6414281572614,57.85094615850639L619.4670852835519,57.176105820155975L643.2927424098424,56.22130255825074L667.1183995361329,54.99544118263407L690.9440566624233,54.06514214309475L714.7697137887137,53.26638769148261L738.5953709150042,52.47785240662143L762.4210280412946,51.363167250105015L786.246685167585,50.866185187391835L810.0723422938755,50.36179360136341L833.897999420166,50.437230642358394L857.7236565464564,49.50868865743883L881.549313672747,48.89431461531719L905.3749707990373,48.33090482533869L929.2006279253278,47.77519857452636L953.0262850516183,47.28140426211319L976.8519421779088,47.44336437440237L1000.6775993041991,46.72714780018665L1024.5032564304897,46.14850525404829L1048.3289135567802,45.40033192874448L1072.1545706830707,44.99725978786295L1095.980227809361,45.09911448458622L1119.8058849356514,44.587410974722545L1143.631542061942,44.02835459522261L1167.4571991882324,44.23136320512402L1191.2828563145229,43.91784760419429L1215.1085134408133,43.08817413548855L1238.9341705671038,42.81948840111083L1262.7598276933943,42.57807121664552L1286.5854848196848,42.12393773660124L1310.411141945975,41.908706544309446L1334.2367990722657,41.802483755746856L1358.062456198556,41.56692155281814L1381.8881133248467,41.16209199402212L1405.713770451137,40.861904441715424L1429.5394275774274,41.059863781429264L1453.365084703718,41.029685860980514L1477.1907418300084,40.45022074441617L1501.0163989562989,40.07966666896354L1524.8420560825891,39.92604108282977" fill="none"></path></g><g><path style="fill: none;" stroke="rgb(187, 187, 187)" stroke-width="2px" d="M119.12828563145229,407.01059453148747L142.95394275774274,368.491824415311L166.77959988403322,337.76387699586905L190.60525701032364,324.5759281490223L214.4309141366141,311.6385969984664L238.25657126290457,306.42604125602736L262.08222838919505,302.7043760308478L285.9078855154855,301.28486331345215L309.73354264177595,300.35601460487356L333.55919976806643,302.709045952933L357.38485689435686,316.43663521491L381.2105140206473,325.1923041474572L405.03617114693776,325.24886653277326L428.8618282732282,309.14089581161426L452.68748539951866,310.62411879739767L476.51314252580914,306.19679790109217L500.33879965209957,303.35788733327274L524.1644567783901,297.53046313477336L547.9901139046805,296.64638933510696L571.815771030971,295.2911396970955L595.6414281572614,291.8661624937224L619.4670852835519,289.71955934405054L643.2927424098424,296.12970904536917L667.1183995361329,299.2426170206277L690.9440566624233,288.41771639591377L714.7697137887137,283.1141804161562L738.5953709150042,280.66521134145694L762.4210280412946,291.79677541593463L786.246685167585,303.4702784959146L810.0723422938755,306.4879057131314L833.897999420166,303.02896354714557L857.7236565464564,292.01839151703786L881.549313672747,297.87553099235566L905.3749707990373,286.63527183409735L929.2006279253278,292.58367572636774L953.0262850516183,286.026169833673L976.8519421779088,291.8058505409044L1000.6775993041991,291.4246425709215L1024.5032564304897,287.0261193693416L1048.3289135567802,296.89631886240966L1072.1545706830707,296.86164797677407L1095.980227809361,302.7976360165315L1119.8058849356514,292.38362349792374L1143.631542061942,291.8170972787764L1167.4571991882324,293.8141150268295L1191.2828563145229,298.5405599788179L1215.1085134408133,294.1824627825427L1238.9341705671038,281.3035608456173L1262.7598276933943,291.9964917895488L1286.5854848196848,291.4473636142717L1310.411141945975,295.24185326671073L1334.2367990722657,290.1412554766355L1358.062456198556,290.56334017334956L1381.8881133248467,288.11312544704316L1405.713770451137,289.5297486487914L1429.5394275774274,294.5036482061258L1453.365084703718,294.23466291660156L1477.1907418300084,298.8387205660107L1501.0163989562989,299.76829022368537L1524.8420560825891,302.15889695026056" fill="none"></path></g><g><path style="fill: none;" stroke="rgb(0, 153, 136)" stroke-width="2px" d="M119.12828563145229,202.17279750358057L142.95394275774274,149.67128384190679L166.77959988403322,123.04921320880364L190.60525701032364,107.18450184506521L214.4309141366141,95.75092463368662L238.25657126290457,86.53150307499072L262.08222838919505,80.82342303229723L285.9078855154855,76.232542141423L309.73354264177595,71.74562414460722L333.55919976806643,69.15175478638882L357.38485689435686,65.9612991893312L381.2105140206473,63.710043156126545L405.03617114693776,60.45820743113149L428.8618282732282,59.07162489975866L452.68748539951866,57.31196232583823L476.51314252580914,55.80978963874547L500.33879965209957,54.65668034939959L524.1644567783901,53.79309372306336L547.9901139046805,52.54176630814088L571.815771030971,51.20672300763686L595.6414281572614,49.9360233063091L619.4670852835519,49.17362132592399L643.2927424098424,48.578689913333484L667.1183995361329,48.07282076415214L690.9440566624233,46.85278389446345L714.7697137887137,46.441546593822885L738.5953709150042,45.896938230276255L762.4210280412946,45.62746342109644L786.246685167585,45.431404738614525L810.0723422938755,44.64933031481775L833.897999420166,43.870761639501055L857.7236565464564,43.54107515091849L881.549313672747,42.59861838151104L905.3749707990373,42.19351491964952L929.2006279253278,42.053574522387315L953.0262850516183,41.476999696629164L976.8519421779088,41.635123355364925L1000.6775993041991,41.13426529325542L1024.5032564304897,39.94019299471791L1048.3289135567802,39.60178056760325L1072.1545706830707,39.433107001869644L1095.980227809361,38.79346042477372L1119.8058849356514,38.993946769988675L1143.631542061942,38.58725410291199L1167.4571991882324,38.51506703252021L1191.2828563145229,38.16243069960812L1215.1085134408133,37.916515930954084L1238.9341705671038,37.23052463227233L1262.7598276933943,37.174044876065985L1286.5854848196848,37.071450163204084L1310.411141945975,36.79219203077404L1334.2367990722657,36.67046900494072L1358.062456198556,36.20794627623422L1381.8881133248467,35.83876893176344L1405.713770451137,35.83492290849606L1429.5394275774274,35.28271489364644L1453.365084703718,35.38675177286466L1477.1907418300084,35.30022037611828L1501.0163989562989,35.511793775109055L1524.8420560825891,35.14612723064415" fill="none"></path></g><g><path style="fill: none;" stroke="rgb(238, 51, 119)" stroke-width="2px" d="M119.12828563145229,334.03963385160483L142.95394275774274,321.3671391125492L166.77959988403322,320.2347504994976L190.60525701032364,289.46469030399896L214.4309141366141,278.7385517868706L238.25657126290457,278.0537168659342L262.08222838919505,283.3208071869659L285.9078855154855,279.1613717138997L309.73354264177595,274.2576393054101L333.55919976806643,280.7055857506793L357.38485689435686,288.2283877193931L381.2105140206473,293.137868106754L405.03617114693776,294.33318849434716L428.8618282732282,299.1307138000813L452.68748539951866,296.27641425139745L476.51314252580914,295.3438913224209L500.33879965209957,300.37570994066476L524.1644567783901,304.35661801326984L547.9901139046805,306.6990694419173L571.815771030971,310.02904794805426L595.6414281572614,311.75200089833555L619.4670852835519,316.0849487807154L643.2927424098424,310.3909323855842L667.1183995361329,305.3249650726156L690.9440566624233,307.4174364477926L714.7697137887137,318.4329071860919L738.5953709150042,313.2660390535149L762.4210280412946,311.9529557341983L786.246685167585,312.5855668740075L810.0723422938755,310.44495380043475L833.897999420166,308.2441536716161L857.7236565464564,309.9020897629744L881.549313672747,316.578732893771L905.3749707990373,316.55241560233713L929.2006279253278,314.74955119759375L953.0262850516183,323.6569670175026L976.8519421779088,318.9664911163319L1000.6775993041991,315.60234611257454L1024.5032564304897,311.88844882214045L1048.3289135567802,314.97541876299476L1072.1545706830707,305.23471979053124L1095.980227809361,306.35518715689227L1119.8058849356514,300.9331814454783L1143.631542061942,302.90366353730144L1167.4571991882324,302.4363743532318L1191.2828563145229,299.68161272385794L1215.1085134408133,312.187647576669L1238.9341705671038,310.80189402844894L1262.7598276933943,313.81945825672693L1286.5854848196848,311.3227437428531L1310.411141945975,309.36651926219594L1334.2367990722657,309.70486745171445L1358.062456198556,307.20441082108835L1381.8881133248467,313.72291068977006L1405.713770451137,308.51551780474045L1429.5394275774274,302.50433003619486L1453.365084703718,309.25328378005514L1477.1907418300084,307.6666065908849L1501.0163989562989,312.99217289970665L1524.8420560825891,313.9422429130111" fill="none"></path></g><g><path style="fill: none;" stroke="rgb(51, 187, 238)" stroke-width="2px" d="M119.12828563145229,190.34429174535973L142.95394275774274,141.27965558924217L166.77959988403322,116.55718918443507L190.60525701032364,101.04351676709383L214.4309141366141,89.75176354021518L238.25657126290457,81.83576943255356L262.08222838919505,75.20785640009373L285.9078855154855,70.52459426887808L309.73354264177595,66.99011764498776L333.55919976806643,63.64754342080576L357.38485689435686,61.20657566503854L381.2105140206473,59.035854616224334L405.03617114693776,56.57784622581579L428.8618282732282,53.97003323827381L452.68748539951866,52.16596448032964L476.51314252580914,50.78615700679219L500.33879965209957,49.66060513593486L524.1644567783901,47.39282283024272L547.9901139046805,46.65094581572807L571.815771030971,46.27459883461152L595.6414281572614,45.16663968217528L619.4670852835519,44.04363702116467L643.2927424098424,43.27822137504253L667.1183995361329,42.349238051865164L690.9440566624233,41.96372081488836L714.7697137887137,41.056472022783986L738.5953709150042,40.5808715887851L762.4210280412946,39.8029007535517L786.246685167585,38.6373052968196L810.0723422938755,38.06394500166401L833.897999420166,37.62826518628755L857.7236565464564,37.263776576488326L881.549313672747,36.59830467760378L905.3749707990373,36.840544763829755L929.2006279253278,35.85171409963069L953.0262850516183,35.89997982674401L976.8519421779088,35.52799238359999L1000.6775993041991,35.12147250401134L1024.5032564304897,33.99546107819404L1048.3289135567802,34.09887297306018L1072.1545706830707,33.370443398141724L1095.980227809361,33.414538274249445L1119.8058849356514,33.1316711091489L1143.631542061942,32.744290426688174L1167.4571991882324,32.36290849296244L1191.2828563145229,31.60709485864204L1215.1085134408133,31.462930768753957L1238.9341705671038,31.124398041186204L1262.7598276933943,30.554705418251434L1286.5854848196848,30.281596703633422L1310.411141945975,29.84278127441864L1334.2367990722657,30.10647649096988L1358.062456198556,29.863746744287283L1381.8881133248467,29.637903152436433L1405.713770451137,29.66280848500916L1429.5394275774274,29.379885557296284L1453.365084703718,29.14138402023331L1477.1907418300084,29.067030878431L1501.0163989562989,29.045334920161377L1524.8420560825891,28.975027528170003" fill="none"></path></g><g><path style="fill: none;" stroke="rgb(51, 187, 238)" stroke-width="2px" d="M119.12828563145229,333.0087240548048L142.95394275774274,284.18002475676695L166.77959988403322,265.72570686201624L190.60525701032364,245.37061187463962L214.4309141366141,222.86506801720407L238.25657126290457,214.1413715267585L262.08222838919505,218.55624749405612L285.9078855154855,231.19131700562193L309.73354264177595,238.03339915411865L333.55919976806643,235.87066898061227L357.38485689435686,234.903380840011L381.2105140206473,237.08055387831507L405.03617114693776,234.62151322053654L428.8618282732282,238.1924978994912L452.68748539951866,236.06987111017042L476.51314252580914,234.20107452255053L500.33879965209957,243.57507244859573L524.1644567783901,239.8957315263874L547.9901139046805,228.79840903990723L571.815771030971,239.23254898381006L595.6414281572614,244.89708439088264L619.4670852835519,255.76477970370266L643.2927424098424,261.7812328154207L667.1183995361329,269.37760508122074L690.9440566624233,256.8438810915052L714.7697137887137,243.41265978427577L738.5953709150042,261.01407697361395L762.4210280412946,254.11685632945006L786.246685167585,258.13479906684967L810.0723422938755,270.35137285501054L833.897999420166,270.99137797099115L857.7236565464564,260.9738818998206L881.549313672747,270.4510737214321L905.3749707990373,273.708832189998L929.2006279253278,282.07851458357595L953.0262850516183,276.3780844256675L976.8519421779088,278.7771623332476L1000.6775993041991,290.2057434452728L1024.5032564304897,295.0925315880973L1048.3289135567802,290.60152194307005L1072.1545706830707,291.4809823194557L1095.980227809361,297.4614624110451L1119.8058849356514,301.00391861051975L1143.631542061942,293.4152081884239L1167.4571991882324,299.5384303961697L1191.2828563145229,296.2016451248616L1215.1085134408133,292.59582737700003L1238.9341705671038,296.52658193633437L1262.7598276933943,293.52393543676635L1286.5854848196848,305.4230026733163L1310.411141945975,299.04507437216216L1334.2367990722657,301.1751079597616L1358.062456198556,305.064970870704L1381.8881133248467,296.9973903586468L1405.713770451137,295.63928542216365L1429.5394275774274,292.99155752830336L1453.365084703718,295.71013292147035L1477.1907418300084,297.9369694905849L1501.0163989562989,300.32695853761203L1524.8420560825891,287.6020601360319" fill="none"></path></g><g><path style="fill: none;" stroke="rgb(204, 51, 17)" stroke-width="2px" d="M119.12828563145229,297.4881167672124L142.95394275774274,187.56257700674118L166.77959988403322,144.5014645327708L190.60525701032364,122.76622178603647L214.4309141366141,108.64890836996811L238.25657126290457,98.5361534555813L262.08222838919505,91.31766691969786L285.9078855154855,86.22094151034166L309.73354264177595,81.80635589939214L333.55919976806643,78.0221209440844L357.38485689435686,75.23737433980881L381.2105140206473,73.41228596942929L405.03617114693776,71.65442985028989L428.8618282732282,69.56932506461784L452.68748539951866,67.89524623799936L476.51314252580914,66.42147564482579L500.33879965209957,65.60623884388225L524.1644567783901,64.23495506978938L547.9901139046805,63.35498063372555L571.815771030971,62.781196762115L595.6414281572614,62.49423093947091L619.4670852835519,61.33682133929846L643.2927424098424,60.94025380866028L667.1183995361329,59.636883334664404L690.9440566624233,58.36225301846295L714.7697137887137,58.85765066577409L738.5953709150042,58.86848025633633L762.4210280412946,58.73752327959646L786.246685167585,58.06321667100709L810.0723422938755,57.18893810397837L833.897999420166,56.48104364864841L857.7236565464564,55.62098623406964L881.549313672747,54.79562772369676L905.3749707990373,54.598278778487874L929.2006279253278,54.42257959696674L953.0262850516183,54.477571579324746L976.8519421779088,53.972124327560785L1000.6775993041991,53.38244781359066L1024.5032564304897,53.34942396139296L1048.3289135567802,53.318151686699906L1072.1545706830707,53.15043479751448L1095.980227809361,53.15292633479205L1119.8058849356514,52.57014696588257L1143.631542061942,51.464376523615584L1167.4571991882324,51.007116678408316L1191.2828563145229,51.14516561135805L1215.1085134408133,51.26236886134152L1238.9341705671038,50.324553716775476L1262.7598276933943,50.013898903685444L1286.5854848196848,49.59838766901122L1310.411141945975,49.463660562269055L1334.2367990722657,48.94746261009512L1358.062456198556,48.9585258928605L1381.8881133248467,48.506927168877795L1405.713770451137,48.31617367833001L1429.5394275774274,47.8351076763092L1453.365084703718,47.397555472117695L1477.1907418300084,47.86821104368892L1501.0163989562989,47.66945176617829L1524.8420560825891,47.618903058809515" fill="none"></path></g><g><path style="fill: none;" stroke="rgb(0, 119, 187)" stroke-width="2px" d="M119.12828563145229,344.92234611261256L142.95394275774274,314.70868127989905L166.77959988403322,279.15889747228795L190.60525701032364,259.68477768866046L214.4309141366141,253.8756601906052L238.25657126290457,255.0191845785492L262.08222838919505,277.92085328790466L285.9078855154855,273.72128741955885L309.73354264177595,285.6427812060963L333.55919976806643,306.0412967534072L357.38485689435686,292.8615440964762L381.2105140206473,307.62371280188364L405.03617114693776,307.37585440287575L428.8618282732282,318.0497306762857L452.68748539951866,332.1962079755236L476.51314252580914,336.50890206234897L500.33879965209957,333.5045348138713L524.1644567783901,345.45012318701276L547.9901139046805,348.35505975674175L571.815771030971,351.2434601794434L595.6414281572614,351.4643167955874L619.4670852835519,352.8798500042215L643.2927424098424,353.77494929910847L667.1183995361329,345.8349945652479L690.9440566624233,343.63706400344336L714.7697137887137,350.5662159288747L738.5953709150042,347.3005684867783L762.4210280412946,343.8290574328446L786.246685167585,344.72456900705237L810.0723422938755,342.10017280346136L833.897999420166,335.21022644486544L857.7236565464564,335.7500856237595L881.549313672747,341.29764594850377L905.3749707990373,345.7717328194375L929.2006279253278,348.54784856878075L953.0262850516183,348.28898932877513L976.8519421779088,348.316960280812L1000.6775993041991,345.08041781592016L1024.5032564304897,339.5643852587224L1048.3289135567802,339.96632745479485L1072.1545706830707,339.3827240126954L1095.980227809361,336.7414603210204L1119.8058849356514,333.5071236675797L1143.631542061942,334.22419628857915L1167.4571991882324,332.4550019425065L1191.2828563145229,329.60641133522455L1215.1085134408133,333.1209424879289L1238.9341705671038,335.77952065907095L1262.7598276933943,344.84358192927334L1286.5854848196848,347.9451261333601L1310.411141945975,342.9327887002248L1334.2367990722657,337.08446605644576L1358.062456198556,334.8584779225707L1381.8881133248467,340.2128215832983L1405.713770451137,339.3473339970678L1429.5394275774274,333.5127331426135L1453.365084703718,334.5483031062457L1477.1907418300084,331.09151038046605L1501.0163989562989,336.76129931289836L1524.8420560825891,337.23058878120474" fill="none"></path></g><g><path style="fill: none;" stroke="rgb(255, 112, 67)" stroke-width="2px" d="M119.12828563145229,198.10583431394275L142.95394275774274,146.82160138509363L166.77959988403322,123.50921035338257L190.60525701032364,108.85458238063646L214.4309141366141,98.59726152236753L238.25657126290457,90.76722205987444L262.08222838919505,84.44753411812236L285.9078855154855,79.58236746977143L309.73354264177595,74.93389781877696L333.55919976806643,70.42306260799533L357.38485689435686,67.12468012463864L381.2105140206473,64.67112359019181L405.03617114693776,61.89470110580862L428.8618282732282,60.403133490929434L452.68748539951866,58.064804467939275L476.51314252580914,56.16972037213157L500.33879965209957,55.21637058292189L524.1644567783901,54.083048615243236L547.9901139046805,53.20837277893909L571.815771030971,51.27442497574427L595.6414281572614,50.52651543518651L619.4670852835519,49.711202400023346L643.2927424098424,48.420080439312784L667.1183995361329,47.94328132726691L690.9440566624233,47.08438534972853L714.7697137887137,46.179518827030854L738.5953709150042,45.45331322048752L762.4210280412946,44.582269298093394L786.246685167585,44.38042545925761L810.0723422938755,44.48843760102617L833.897999420166,43.93459660742004L857.7236565464564,43.052391613619626L881.549313672747,42.35124012427863L905.3749707990373,41.644141080045635L929.2006279253278,41.13967592125141L953.0262850516183,40.99740832086284L976.8519421779088,40.67147144985293L1000.6775993041991,40.37278765750178L1024.5032564304897,39.88425329144945L1048.3289135567802,39.465135996179L1072.1545706830707,38.93871541871003L1095.980227809361,38.920729199898695L1119.8058849356514,39.27651045511727L1143.631542061942,38.562047857333084L1167.4571991882324,38.5228592119883L1191.2828563145229,38.235853787728665L1215.1085134408133,37.45650123654124L1238.9341705671038,37.18363416245437L1262.7598276933943,36.60746815668522L1286.5854848196848,36.376348187288784L1310.411141945975,36.146012498404474L1334.2367990722657,36.225471468489786L1358.062456198556,35.769078303274824L1381.8881133248467,35.1401273811579L1405.713770451137,35.11787185087662L1429.5394275774274,34.73794554631333L1453.365084703718,34.56727958060535L1477.1907418300084,34.62525056756587L1501.0163989562989,34.0070110881995L1524.8420560825891,34.55258170916091" fill="none"></path></g></g></g></g><g opacity="0.2"><g><g><g><path style="fill: none;" stroke="rgb(0, 153, 136)" stroke-width="2px" d="M119.12828563145229,354.7739439703311L142.95394275774274,283.2922116234856L166.77959988403322,233.46122186135162L190.60525701032364,280.31385726065605L214.4309141366141,251.21707531400367L238.25657126290457,263.7034932388632L262.08222838919505,267.4838027368633L285.9078855154855,285.0104969213967L309.73354264177595,289.2490226523894L333.55919976806643,275.3879560285521L357.38485689435686,297.9551310792488L381.2105140206473,292.4565362833376L405.03617114693776,301.8500202113082L428.8618282732282,312.04525466796L452.68748539951866,308.7232637061972L476.51314252580914,291.1964672184191L500.33879965209957,308.1504678391453L524.1644567783901,301.8500202113082L547.9901139046805,296.0076865132191L571.815771030971,306.7758191401675L595.6414281572614,303.224668910286L619.4670852835519,300.7044284772044L643.2927424098424,334.03963385160483L667.1183995361329,309.8687531370564L690.9440566624233,328.88477795787156L714.7697137887137,314.5654951010417L738.5953709150042,321.0951019969974L762.4210280412946,293.25838911526347L786.246685167585,320.1786695310122L810.0723422938755,300.13163261015245L833.897999420166,312.61805053501195L857.7236565464564,311.8161977030861L881.549313672747,303.56830550921933L905.3749707990373,301.96449754212284L929.2006279253278,296.2368457813377L953.0262850516183,318.918498162849L976.8519421779088,305.6302274060637L1000.6775993041991,319.262237065027L1024.5032564304897,309.75417350299705L1048.3289135567802,320.9805223629381L1072.1545706830707,306.08844363905627L1095.980227809361,328.65561868975294L1119.8058849356514,310.21238973598963L1143.631542061942,338.6217961815308L1167.4571991882324,312.8472098031306L1191.2828563145229,320.75136309481945L1215.1085134408133,310.78518560304155L1238.9341705671038,327.9683454918864L1262.7598276933943,331.9777119547605L1286.5854848196848,333.23778101967895L1310.411141945975,320.5223061299455L1334.2367990722657,324.8753091917528L1358.062456198556,308.7232637061972L1381.8881133248467,332.09229158881976L1405.713770451137,301.0480650761377L1429.5394275774274,309.0669003051305L1453.365084703718,306.6612395061082L1477.1907418300084,328.9992552886862L1501.0163989562989,319.37671439584165L1524.8420560825891,318.918498162849" fill="none"></path></g><g><path style="fill: none;" stroke="rgb(238, 51, 119)" stroke-width="2px" d="M119.12828563145229,222.2210620633767L142.95394275774274,119.86022064078813L166.77959988403322,100.47058437034377L190.60525701032364,88.44166655576399L214.4309141366141,82.74225049051489L238.25657126290457,77.0427321220211L262.08222838919505,73.60585461646488L285.9078855154855,69.91127523751989L309.73354264177595,66.47439773196362L333.55919976806643,65.6152550830081L357.38485689435686,61.66287152742958L381.2105140206473,59.801259383699694L405.03617114693776,58.34057365593271L428.8618282732282,56.53625132923245L452.68748539951866,54.53141464292836L476.51314252580914,53.844039141817085L500.33879965209957,52.46928813959463L524.1644567783901,50.80808805222381L547.9901139046805,48.717418943619954L571.815771030971,48.430969858471634L595.6414281572614,46.626647531771376L619.4670852835519,45.71011276254145L643.2927424098424,43.50476171663357L667.1183995361329,43.10383530067062L690.9440566624233,42.27323525698523L714.7697137887137,41.64314957290363L738.5953709150042,41.671794481418495L762.4210280412946,39.52383555578496L786.246685167585,39.69560270362921L810.0723422938755,38.40678642695125L833.897999420166,36.97474560769908L857.7236565464564,36.60246410025099L881.549313672747,36.23018259280286L905.3749707990373,36.02966823319907L929.2006279253278,34.82678668206555L953.0262850516183,33.824317187291136L976.8519421779088,33.53797040538754L1000.6775993041991,34.19670099798395L1024.5032564304897,32.56414581912799L1048.3289135567802,33.25152132023921L1072.1545706830707,32.249154128709534L1095.980227809361,31.991349952076067L1119.8058849356514,31.332619359479654L1143.631542061942,30.24431744240548L1167.4571991882324,29.614231758323886L1191.2828563145229,29.843288723197812L1215.1085134408133,29.72881139238319L1238.9341705671038,30.416084590249735L1262.7598276933943,29.642876666838703L1286.5854848196848,28.124901122042044L1310.411141945975,29.642876666838703L1334.2367990722657,29.471007215749722L1358.062456198556,28.210835847586573L1381.8881133248467,25.833717653834352L1405.713770451137,27.15107653578249L1429.5394275774274,26.606925577245423L1453.365084703718,26.922019570908564L1477.1907418300084,26.34922370385664L1501.0163989562989,25.11769724420831L1524.8420560825891,26.72150521130473" fill="none"></path></g><g><path style="fill: none;" stroke="rgb(255, 112, 67)" stroke-width="2px" d="M119.12828563145229,315.36734793296756L142.95394275774274,253.85179307789994L166.77959988403322,264.2762891059151L190.60525701032364,253.39357684490733L214.4309141366141,226.0151824994107L238.25657126290457,237.12695172529246L262.08222838919505,250.75885908101105L285.9078855154855,271.83680579867064L309.73354264177595,252.59172401298144L333.55919976806643,241.59453442115912L357.38485689435686,255.91381727798898L381.2105140206473,274.24246659769295L405.03617114693776,249.269630747974L428.8618282732282,223.03672583333648L452.68748539951866,250.30064284801847L476.51314252580914,264.61992570484836L500.33879965209957,244.9166276861666L524.1644567783901,265.6509378048929L547.9901139046805,248.35319828198874L571.815771030971,250.41522248207784L595.6414281572614,244.0001952201814L619.4670852835519,252.70630364704078L643.2927424098424,261.0687754749669L667.1183995361329,245.94763978621117L690.9440566624233,230.3681855612181L714.7697137887137,257.0593067088481L738.5953709150042,233.11748295917366L762.4210280412946,258.3194780770113L786.246685167585,262.78706077287796L810.0723422938755,252.93536061191475L833.897999420166,263.13069737181127L857.7236565464564,280.8865508244633L881.549313672747,267.7128597017373L905.3749707990373,262.4434241739447L929.2006279253278,273.66967073064103L953.0262850516183,284.66686032246344L976.8519421779088,274.1278869636336L1000.6775993041991,294.06034425043407L1024.5032564304897,268.17107593472986L1048.3289135567802,264.2762891059151L1072.1545706830707,267.25464346874463L1095.980227809361,283.06315465861167L1119.8058849356514,278.1372534265077L1143.631542061942,278.25183306056704L1167.4571991882324,282.03214255856716L1191.2828563145229,264.5053460707891L1215.1085134408133,300.5898488431451L1238.9341705671038,267.25464346874463L1262.7598276933943,308.7232637061972L1286.5854848196848,278.9392085616783L1310.411141945975,270.6913163678115L1334.2367990722657,275.1588990636782L1358.062456198556,289.93639815350065L1381.8881133248467,273.3260341317078L1405.713770451137,308.7232637061972L1429.5394275774274,309.5251165381231L1453.365084703718,283.40679125754497L1477.1907418300084,270.80579369862613L1501.0163989562989,291.31104685247846L1524.8420560825891,286.4997252544338" fill="none"></path></g><g><path style="fill: none;" stroke="rgb(187, 187, 187)" stroke-width="2px" d="M119.12828563145229,175.59451683485L142.95394275774274,101.98855991514044L166.77959988403322,87.29607482166014L190.60525701032364,78.13113634234L214.4309141366141,75.23840979532085L238.25657126290457,68.65110386935669L262.08222838919505,64.67007540526336L285.9078855154855,63.266679494526045L309.73354264177595,59.97302653154399L333.55919976806643,55.67700637703221L357.38485689435686,56.33573696962861L381.2105140206473,51.495463553335036L405.03617114693776,51.06589222885728L428.8618282732282,49.89165558623862L452.68748539951866,47.42850036369722L476.51314252580914,47.11350867327881L500.33879965209957,44.96544744440055L524.1644567783901,42.81748851876702L547.9901139046805,42.27323525698523L571.815771030971,42.04417829211126L595.6414281572614,40.72671710691844L619.4670852835519,39.83882724620338L643.2927424098424,37.60493359502536L667.1183995361329,39.29467628766631L690.9440566624233,37.117970150273244L714.7697137887137,35.74321914805074L738.5953709150042,35.542807091691635L762.4210280412946,33.73838246174665L786.246685167585,34.51169268840241L810.0723422938755,32.76466017873178L833.897999420166,32.87923981279113L857.7236565464564,32.36373376276888L881.549313672747,31.819480500987087L905.3749707990373,31.533133719083448L929.2006279253278,30.473374407279408L953.0262850516183,29.471007215749722L976.8519421779088,30.18702762537581L1000.6775993041991,29.556941941294212L1024.5032564304897,28.955501165727473L1048.3289135567802,28.869566440182986L1072.1545706830707,28.296770573131063L1095.980227809361,28.010321487982736L1119.8058849356514,28.611762263549476L1143.631542061942,28.23948075610139L1167.4571991882324,27.15107653578249L1191.2828563145229,26.95066447942338L1215.1085134408133,26.005484801678644L1238.9341705671038,26.148709344252808L1262.7598276933943,26.54963576021575L1286.5854848196848,25.17498706123794L1310.411141945975,25.51862366017121L1334.2367990722657,25.43268893462672L1358.062456198556,25.69049311126023L1381.8881133248467,23.51378697386716L1405.713770451137,24.287097200522876L1429.5394275774274,24.54479907391166L1453.365084703718,23.42785224832267L1477.1907418300084,24.315742109037732L1501.0163989562989,23.914713389830105L1524.8420560825891,24.086582840919082" fill="none"></path></g><g><path style="fill: none;" stroke="rgb(51, 187, 238)" stroke-width="2px" d="M119.12828563145229,271.7222261646113L142.95394275774274,264.96356230378166L166.77959988403322,280.8865508244633L190.60525701032364,276.1899111637227L214.4309141366141,256.9448293780335L238.25657126290457,302.30823644430086L262.08222838919505,293.48754838338215L285.9078855154855,270.9203733326854L309.73354264177595,317.0856332308786L333.55919976806643,319.7204532980196L357.38485689435686,311.58703843496744L381.2105140206473,302.0790771761822L405.03617114693776,314.22185850210843L428.8618282732282,310.21238973598963L452.68748539951866,281.45934669151524L476.51314252580914,313.99269923398975L500.33879965209957,303.79736247409323L524.1644567783901,283.2922116234856L547.9901139046805,303.33914624110065L571.815771030971,295.89320918240446L595.6414281572614,302.53729340917477L619.4670852835519,304.37015834114516L643.2927424098424,304.37015834114516L667.1183995361329,302.6518730432341L690.9440566624233,313.99269923398975L714.7697137887137,294.289401215308L738.5953709150042,306.8903987742268L762.4210280412946,292.2274793184637L786.246685167585,294.6330378142413L810.0723422938755,295.89320918240446L833.897999420166,281.45934669151524L857.7236565464564,301.50628130913026L881.549313672747,285.0104969213967L905.3749707990373,289.47818192050806L929.2006279253278,294.97677671641924L953.0262850516183,280.54291422553L976.8519421779088,285.8124520565673L1000.6775993041991,279.7410613936041L1024.5032564304897,277.22082096052253L1048.3289135567802,286.3851456203745L1072.1545706830707,280.7720734936487L1095.980227809361,281.8029832904485L1119.8058849356514,281.2302897266413L1143.631542061942,287.6453169885377L1167.4571991882324,268.4002352028485L1191.2828563145229,262.09968527176676L1215.1085134408133,268.7438718017818L1238.9341705671038,289.1344430183301L1262.7598276933943,273.0968748635891L1286.5854848196848,274.3570462317523L1310.411141945975,293.25838911526347L1334.2367990722657,278.82462892761896L1358.062456198556,272.9823975327745L1381.8881133248467,273.8988299987597L1405.713770451137,285.23965618951536L1429.5394275774274,276.87718436158923L1453.365084703718,263.2452770058706L1477.1907418300084,295.4349929494118L1501.0163989562989,264.1617094718558L1524.8420560825891,268.0564963006705" fill="none"></path></g><g><path style="fill: none;" stroke="rgb(204, 51, 17)" stroke-width="2px" d="M119.12828563145229,183.64240618533645L142.95394275774274,110.29425344226037L166.77959988403322,94.19837243804275L190.60525701032364,84.00242185867808L214.4309141366141,77.18595666459527L238.25657126290457,71.65830774719046L262.08222838919505,69.05203028531963L285.9078855154855,66.18805095006002L309.73354264177595,61.72016134445926L333.55919976806643,58.884724614469775L357.38485689435686,56.622083751532216L381.2105140206473,57.02311247073984L405.03617114693776,52.06825942038696L428.8618282732282,52.669700195953745L452.68748539951866,50.75079823519414L476.51314252580914,49.17563517661253L500.33879965209957,48.80325136591972L524.1644567783901,44.421296485863486L547.9901139046805,45.39512107212304L571.815771030971,43.18977002621511L595.6414281572614,42.67426397619286L619.4670852835519,42.70290888470772L643.2927424098424,40.297043479196L667.1183995361329,40.4116231132553L690.9440566624233,40.8699416494926L714.7697137887137,37.977215102473444L738.5953709150042,38.43543133546606L762.4210280412946,37.347129418391894L786.246685167585,35.77186405656556L810.0723422938755,35.74321914805074L833.897999420166,35.82915387359523L857.7236565464564,36.68839882579548L881.549313672747,34.48304777988755L905.3749707990373,34.42575796285792L929.2006279253278,33.652550039446844L953.0262850516183,31.447198993538958L976.8519421779088,31.561778627598304L1000.6775993041991,31.848125409501904L1024.5032564304897,31.67635826165761L1048.3289135567802,31.79083559247223L1072.1545706830707,32.59279072764281L1095.980227809361,31.418554085024144L1119.8058849356514,29.67152157535356L1143.631542061942,29.299137764660745L1167.4571991882324,29.528297032779395L1191.2828563145229,28.468537720975355L1215.1085134408133,29.528297032779395L1238.9341705671038,28.840921531668126L1262.7598276933943,27.809807128378903L1286.5854848196848,28.66905208057915L1310.411141945975,27.953031670953063L1334.2367990722657,27.609395072019794L1358.062456198556,27.69532979756428L1381.8881133248467,27.437525620930813L1405.713770451137,28.06761130501241L1429.5394275774274,26.86472975387889L1453.365084703718,26.291933886826968L1477.1907418300084,27.437525620930813L1501.0163989562989,24.63073379945615L1524.8420560825891,26.606925577245423" fill="none"></path></g><g><path style="fill: none;" stroke="rgb(204, 51, 17)" stroke-width="2px" d="M119.12828563145229,307.1194557391008L142.95394275774274,234.83587056032943L166.77959988403322,285.23965618951536L190.60525701032364,278.9392085616783L214.4309141366141,257.0593067088481L238.25657126290457,270.46215709969283L262.08222838919505,249.9570062490852L285.9078855154855,260.0377633749224L309.73354264177595,282.9485750245523L333.55919976806643,265.42177853677424L357.38485689435686,254.31000931089258L381.2105140206473,249.72784698096655L405.03617114693776,251.10249567994438L428.8618282732282,237.24142905610705L452.68748539951866,250.98801834912976L476.51314252580914,249.49879001609258L500.33879965209957,251.21707531400367L524.1644567783901,252.01892814592952L547.9901139046805,267.59828006767793L571.815771030971,240.44894268705528L595.6414281572614,235.52314375819597L619.4670852835519,248.23872095117412L643.2927424098424,251.21707531400367L667.1183995361329,254.31000931089258L690.9440566624233,246.40585601920372L714.7697137887137,236.43957622418117L738.5953709150042,253.7373157470853L762.4210280412946,245.37484391915925L786.246685167585,253.0499402459741L810.0723422938755,250.18606321395913L833.897999420166,247.20770885112964L857.7236565464564,239.3034532561961L881.549313672747,234.72129092627014L905.3749707990373,247.89498204899616L929.2006279253278,237.0123720912331L953.0262850516183,250.18606321395913L976.8519421779088,241.93817102009234L1000.6775993041991,224.64053380043296L1024.5032564304897,241.59453442115912L1048.3289135567802,247.55134545006285L1072.1545706830707,241.36537515304042L1095.980227809361,240.7926815892332L1119.8058849356514,237.12695172529246L1143.631542061942,241.2508978222258L1167.4571991882324,244.68746841804796L1191.2828563145229,247.09312921707027L1215.1085134408133,244.80204805210732L1238.9341705671038,245.48942355321853L1262.7598276933943,241.59453442115912L1286.5854848196848,239.64708985512937L1310.411141945975,234.95034789114405L1334.2367990722657,234.2630746932775L1358.062456198556,238.73065738914417L1381.8881133248467,241.93817102009234L1405.713770451137,269.54572463370766L1429.5394275774274,255.34102141093706L1453.365084703718,244.57288878398862L1477.1907418300084,253.85179307789994L1501.0163989562989,253.62273611302604L1524.8420560825891,259.2359105429965" fill="none"></path></g><g><path style="fill: none;" stroke="rgb(0, 119, 187)" stroke-width="2px" d="M119.12828563145229,356.14378441680816L142.95394275774274,126.53346129229678L166.77959988403322,103.76423733332584L190.60525701032364,94.57065394549085L214.4309141366141,88.58489109833815L238.25657126290457,82.16935232021828L262.08222838919505,78.61799748384745L285.9078855154855,75.12383016126155L309.73354264177595,72.03069155788327L333.55919976806643,69.51034882155693L357.38485689435686,68.93755295450501L381.2105140206473,67.70592419161196L405.03617114693776,66.61762227453778L428.8618282732282,64.67007540526336L452.68748539951866,62.264312302996366L476.51314252580914,62.66523871895931L500.33879965209957,60.6317571241404L524.1644567783901,57.88235742294009L547.9901139046805,56.7080184770767L571.815771030971,57.710487971851116L595.6414281572614,56.73666338559156L619.4670852835519,56.16386751853964L643.2927424098424,54.789116516317144L667.1183995361329,53.15666364070586L690.9440566624233,52.669700195953745L714.7697137887137,52.06825942038696L738.5953709150042,51.29505149697593L762.4210280412946,49.691141226634784L786.246685167585,50.12071255111258L810.0723422938755,49.605206501090294L833.897999420166,50.550386178835026L857.7236565464564,48.115875864808494L881.549313672747,47.972753625479015L905.3749707990373,47.485790180726895L929.2006279253278,46.941639222189785L953.0262850516183,46.540712806226885L976.8519421779088,47.68630454033073L1000.6775993041991,45.65282294551182L1024.5032564304897,45.28054143806369L1048.3289135567802,44.278071943289326L1072.1545706830707,44.39265157734863L1095.980227809361,45.25189652954888L1119.8058849356514,43.81985571029671L1143.631542061942,43.18977002621511L1167.4571991882324,44.53587611992279L1191.2828563145229,43.44757420284862L1215.1085134408133,41.84366393250747L1238.9341705671038,42.41645979955939L1262.7598276933943,42.215945439955554L1286.5854848196848,41.442737516544526L1310.411141945975,41.585859755874004L1334.2367990722657,41.64314957290363L1358.062456198556,41.213578248425875L1381.8881133248467,40.55484765582946L1405.713770451137,40.4116231132553L1429.5394275774274,41.356802791000035L1453.365084703718,40.984418980307225L1477.1907418300084,39.58102306956991L1501.0163989562989,39.52383555578496L1524.8420560825891,39.69560270362921" fill="none"></path></g><g><path style="fill: none;" stroke="rgb(187, 187, 187)" stroke-width="2px" d="M119.12828563145229,407.01059453148747L142.95394275774274,345.38056234560514L166.77959988403322,308.2650474732046L190.60525701032364,309.0669003051305L214.4309141366141,294.7476174483006L238.25657126290457,299.2152001441673L262.08222838919505,297.3823352121969L285.9078855154855,299.2152001441673L309.73354264177595,298.9861431792933L333.55919976806643,306.2030232731156L357.38485689435686,336.90351088361973L381.2105140206473,338.27815958259754L405.03617114693776,325.3335254247454L428.8618282732282,285.0104969213967L452.68748539951866,312.8472098031306L476.51314252580914,299.55893904634524L500.33879965209957,299.10072281335266L524.1644567783901,288.7908064193968L547.9901139046805,295.32041331535254L571.815771030971,293.25838911526347L595.6414281572614,286.72888452255245L619.4670852835519,286.4997252544338L643.2927424098424,305.74480704012296L667.1183995361329,303.9119421081526L690.9440566624233,272.18044239760394L714.7697137887137,275.1588990636782L738.5953709150042,276.99176399564857L762.4210280412946,308.4941044380786L786.246685167585,320.9805223629381L810.0723422938755,311.01434487116023L833.897999420166,297.8405514451895L857.7236565464564,275.5025356626114L881.549313672747,306.6612395061082L905.3749707990373,269.7748839018263L929.2006279253278,301.50628130913026L953.0262850516183,276.1899111637227L976.8519421779088,300.4753715123304L1000.6775993041991,290.85283061948587L1024.5032564304897,280.4283345914707L1048.3289135567802,311.7016180690268L1072.1545706830707,296.80964164838963L1095.980227809361,311.7016180690268L1119.8058849356514,276.7626047275299L1143.631542061942,290.9673079503005L1167.4571991882324,296.80964164838963L1191.2828563145229,305.6302274060637L1215.1085134408133,287.6453169885377L1238.9341705671038,261.9852079409521L1262.7598276933943,308.035888205086L1286.5854848196848,290.6236713513672L1310.411141945975,300.93358774532305L1334.2367990722657,282.49035879155974L1358.062456198556,291.1964672184191L1381.8881133248467,284.4378033575895L1405.713770451137,291.65468345141176L1429.5394275774274,301.96449754212284L1453.365084703718,293.8311849823154L1477.1907418300084,305.74480704012296L1501.0163989562989,301.162644710197L1524.8420560825891,305.74480704012296" fill="none"></path></g><g><path style="fill: none;" stroke="rgb(0, 153, 136)" stroke-width="2px" d="M119.12828563145229,202.17279750358057L142.95394275774274,118.17037564490249L166.77959988403322,97.49202540102482L190.60525701032364,88.52760128130848L214.4309141366141,80.82324622651065L238.25657126290457,73.77772406755386L262.08222838919505,72.66077724196484L285.9078855154855,69.53899373007175L309.73354264177595,65.12829163825597L333.55919976806643,65.30016108934495L357.38485689435686,61.20455299119232L381.2105140206473,60.34541034223676L405.03617114693776,55.59107165148772L428.8618282732282,56.994467562225026L452.68748539951866,54.67453688225779L476.51314252580914,53.55759005666881L500.33879965209957,52.92750437258721L524.1644567783901,52.49793304810945L547.9901139046805,50.66496581289433L571.815771030971,49.204280085127344L595.6414281572614,48.030043442508685L619.4670852835519,48.030043442508685L643.2927424098424,47.68630454033073L667.1183995361329,47.3140230328826L690.9440566624233,45.02273726143022L714.7697137887137,45.8246923966008L738.5953709150042,45.0800270784599L762.4210280412946,45.22325162103402L786.246685167585,45.137316895489526L810.0723422938755,43.476219111363434L833.897999420166,42.70290888470772L857.7236565464564,43.04654548364099L881.549313672747,41.18493333991106L905.3749707990373,41.585859755874004L929.2006279253278,41.84366393250747L953.0262850516183,40.61213747285914L976.8519421779088,41.87230884102229L1000.6775993041991,40.38297820474048L1024.5032564304897,38.14908455356247L1048.3289135567802,39.094161928062476L1072.1545706830707,39.18009665360697L1095.980227809361,37.83399055989933L1119.8058849356514,39.29467628766631L1143.631542061942,37.977215102473444L1167.4571991882324,38.40678642695125L1191.2828563145229,37.63347620029549L1215.1085134408133,37.54764377799569L1238.9341705671038,36.20153768428805L1262.7598276933943,37.08932524175838L1286.5854848196848,36.91755809391413L1310.411141945975,36.37330483213234L1334.2367990722657,36.487884466191645L1358.062456198556,35.51416218317678L1381.8881133248467,35.28500291505812L1405.713770451137,35.82915387359523L1429.5394275774274,34.454402871372736L1453.365084703718,35.542807091691635L1477.1907418300084,35.17042328099882L1501.0163989562989,35.82915387359523L1524.8420560825891,34.597627413946896" fill="none"></path></g><g><path style="fill: none;" stroke="rgb(238, 51, 119)" stroke-width="2px" d="M119.12828563145229,334.03963385160483L142.95394275774274,313.7636422691158L166.77959988403322,319.1476574309677L190.60525701032364,253.2790995140927L214.4309141366141,264.7345053389077L238.25657126290457,277.10634362970785L262.08222838919505,290.85283061948587L285.9078855154855,273.0968748635891L309.73354264177595,267.02558650387067L333.55919976806643,290.28003475243395L357.38485689435686,299.4443594122859L381.2105140206473,300.4753715123304L405.03617114693776,296.1222661472784L428.8618282732282,306.3176029071749L452.68748539951866,291.998320050345L476.51314252580914,293.94576461637473L500.33879965209957,307.92130857102666L524.1644567783901,310.32696937004897L547.9901139046805,310.21238973598963L571.815771030971,315.02371133403426L595.6414281572614,314.33633583292306L619.4670852835519,322.58422802678984L643.2927424098424,301.8500202113082L667.1183995361329,297.72607411437485L690.9440566624233,310.5561286381676L714.7697137887137,334.95606631759L738.5953709150042,305.515750075249L762.4210280412946,309.98333277111567L786.246685167585,313.53448300099717L810.0723422938755,307.2340353731601L833.897999420166,304.9429542081971L857.7236565464564,312.38899357013804L881.549313672747,326.5936967929086L905.3749707990373,316.5129396670714L929.2006279253278,312.04525466796L953.0262850516183,337.01809051767907L976.8519421779088,311.9307773371454L1000.6775993041991,310.5561286381676L1024.5032564304897,306.3176029071749L1048.3289135567802,319.60587366396027L1072.1545706830707,290.6236713513672L1095.980227809361,308.035888205086L1119.8058849356514,292.8001728822709L1143.631542061942,305.8593866741823L1167.4571991882324,301.73544057724894L1191.2828563145229,295.5494702802265L1215.1085134408133,330.9466998547159L1238.9341705671038,308.7232637061972L1262.7598276933943,318.3458045990418L1286.5854848196848,307.57767197209336L1310.411141945975,306.4321825412342L1334.2367990722657,310.21238973598963L1358.062456198556,303.45372587516L1381.8881133248467,323.500660492775L1405.713770451137,300.7044284772044L1429.5394275774274,293.48754838338215L1453.365084703718,319.37671439584165L1477.1907418300084,305.2865908071304L1501.0163989562989,320.9805223629381L1524.8420560825891,315.36734793296756" fill="none"></path></g><g><path style="fill: none;" stroke="rgb(51, 187, 238)" stroke-width="2px" d="M119.12828563145229,190.34429174535993L142.95394275774274,111.84087389557185L166.77959988403322,92.82362143582026L190.60525701032364,82.79943800429987L214.4309141366141,75.0092505272022L238.25657126290457,70.88509982377943L262.08222838919505,65.7298347170674L285.9078855154855,63.69635312224849L309.73354264177595,61.77745116148893L333.55919976806643,58.68421025486598L357.38485689435686,57.56726342927695L381.2105140206473,55.79158601109151L405.03617114693776,52.898859464072395L428.8618282732282,50.06342273408291L452.68748539951866,49.46198195851613L476.51314252580914,48.717418943619954L500.33879965209957,47.972753625479015L524.1644567783901,43.99172516138568L547.9901139046805,45.538243311452476L571.815771030971,45.71011276254145L595.6414281572614,43.50476171663357L619.4670852835519,42.35916998252972L643.2927424098424,42.130113017655795L667.1183995361329,40.955774071792405L690.9440566624233,41.38544769951485L714.7697137887137,39.69560270362921L738.5953709150042,39.867472154718236L762.4210280412946,38.6359456950699L786.246685167585,36.888913185399275L810.0723422938755,37.20390487581773L833.897999420166,36.97474560769908L857.7236565464564,36.717043734310295L881.549313672747,35.60009690872126L905.3749707990373,37.20390487581773L929.2006279253278,34.368468145828245L953.0262850516183,35.9723784161694L976.8519421779088,34.97001122463971L1000.6775993041991,34.51169268840241L1024.5032564304897,32.306443945739204L1048.3289135567802,34.25399081501363L1072.1545706830707,32.27779903722439L1095.980227809361,33.48068058835787L1119.8058849356514,32.707370361702154L1143.631542061942,32.163219403165044L1167.4571991882324,31.79083559247223L1191.2828563145229,30.473374407279408L1215.1085134408133,31.246684633935164L1238.9341705671038,30.616598949853568L1262.7598276933943,29.700166483868376L1286.5854848196848,29.87193363171267L1310.411141945975,29.1845581306014L1334.2367990722657,30.502019315794264L1358.062456198556,29.49965212426454L1381.8881133248467,29.299137764660745L1405.713770451137,29.700166483868376L1429.5394275774274,28.955501165727473L1453.365084703718,28.783631714638496L1477.1907418300084,28.955501165727473L1501.0163989562989,29.012790982757107L1524.8420560825891,28.869566440182986" fill="none"></path></g><g><path style="fill: none;" stroke="rgb(51, 187, 238)" stroke-width="2px" d="M119.12828563145229,333.008724054805L142.95394275774274,254.8828051779445L166.77959988403322,248.00956168305552L190.60525701032364,221.43302016948476L214.4309141366141,193.48182995693617L238.25657126290457,202.07335874973623L262.08222838919505,224.86959076530687L285.9078855154855,249.61336965015192L309.73354264177595,248.12414131711478L333.55919976806643,232.65926672618104L357.38485689435686,233.46122186135162L381.2105140206473,240.33446535624066L405.03617114693776,230.94098142827002L428.8618282732282,243.5419789871888L452.68748539951866,232.8884259942997L476.51314252580914,231.39919766126258L500.33879965209957,257.63210257590003L524.1644567783901,234.3776543273368L547.9901139046805,212.1541158755734L571.815771030971,254.8828051779445L595.6414281572614,253.39357684490733L619.4670852835519,272.06596506678926L643.2927424098424,270.80579369862613L667.1183995361329,280.7720734936487L690.9440566624233,238.0433841912776L714.7697137887137,223.26588510145513L738.5953709150042,287.416157720419L762.4210280412946,243.77103595206276L786.246685167585,264.1617094718558L810.0723422938755,288.67622678533746L833.897999420166,271.95138543273L857.7236565464564,245.94763978621117L881.549313672747,284.66686032246344L905.3749707990373,278.5954696595003L929.2006279253278,294.6330378142413L953.0262850516183,267.82743933579656L976.8519421779088,282.3757791575004L1000.6775993041991,307.34861500721945L1024.5032564304897,302.4227137751155L1048.3289135567802,283.86500749053755L1072.1545706830707,292.8001728822709L1095.980227809361,306.4321825412342L1119.8058849356514,306.3176029071749L1143.631542061942,282.03214255856716L1167.4571991882324,308.7232637061972L1191.2828563145229,291.1964672184191L1215.1085134408133,287.1871007555451L1238.9341705671038,302.4227137751155L1262.7598276933943,289.0199656875155L1286.5854848196848,323.27160352790105L1310.411141945975,289.47818192050806L1334.2367990722657,304.37015834114516L1358.062456198556,310.8997652371009L1381.8881133248467,284.89601959058206L1405.713770451137,293.60212801744143L1429.5394275774274,289.0199656875155L1453.365084703718,299.7879960112192L1477.1907418300084,301.2772243442563L1501.0163989562989,303.9119421081526L1524.8420560825891,268.5147125336631" fill="none"></path></g><g><path style="fill: none;" stroke="rgb(204, 51, 17)" stroke-width="2px" d="M119.12828563145229,297.4881167672124L142.95394275774274,121.60725315045876L166.77959988403322,103.1627965577591L190.60525701032364,97.20557631587653L214.4309141366141,90.21734397394943L238.25657126290457,84.54657281721519L262.08222838919505,80.99511567759961L285.9078855154855,78.78986693493641L309.73354264177595,75.29569961235052L333.55919976806643,72.40297306533137L357.38485689435686,71.08551188013854L381.2105140206473,70.6845854641756L405.03617114693776,69.02338537680482L428.8618282732282,66.4457528234488L452.68748539951866,65.38609581488944L476.51314252580914,64.21185917227078L500.33879965209957,64.38372862335976L524.1644567783901,62.178377577451876L547.9901139046805,62.035153034877716L571.815771030971,61.92057340081836L595.6414281572614,62.06379794339253L619.4670852835519,59.60074502409586L643.2927424098424,60.34541034223676L667.1183995361329,57.681843063336295L690.9440566624233,56.45031660368792L714.7697137887137,59.60074502409586L738.5953709150042,58.884724614469775L762.4210280412946,58.5410880155365L786.246685167585,57.0517573792547L810.0723422938755,55.877520736635994L833.897999420166,55.419202200398736L857.7236565464564,54.330900283324524L881.549313672747,53.55759005666881L905.3749707990373,54.302255374809704L929.2006279253278,54.159030832235544L953.0262850516183,54.560059551443175L976.8519421779088,53.213953457735535L1000.6775993041991,52.49793304810945L1024.5032564304897,53.299888183280025L1048.3289135567802,53.27124327476516L1072.1545706830707,52.898859464072395L1095.980227809361,53.15666364070586L1119.8058849356514,51.69597791293887L1143.631542061942,49.80572086069413L1167.4571991882324,50.321226910716376L1191.2828563145229,51.35223901076092L1215.1085134408133,51.43817373630541L1238.9341705671038,48.91783099997907L1262.7598276933943,49.54791668406066L1286.5854848196848,48.97512081700874L1310.411141945975,49.26156990215702L1334.2367990722657,48.173165681838164L1358.062456198556,48.97512081700874L1381.8881133248467,47.82952908290489L1405.713770451137,48.030043442508685L1429.5394275774274,47.11350867327881L1453.365084703718,46.74122716583068L1477.1907418300084,48.574194401045794L1501.0163989562989,47.37131284991227L1524.8420560825891,47.54307999775657" fill="none"></path></g><g><path style="fill: none;" stroke="rgb(0, 119, 187)" stroke-width="2px" d="M119.12828563145229,344.92234611261256L142.95394275774274,296.580482380271L166.77959988403322,245.03110501698123L190.60525701032364,236.78321282311444L214.4309141366141,246.29127638514439L238.25657126290457,256.60109047585553L262.08222838919505,310.6706059689823L285.9078855154855,267.59828006767793L309.73354264177595,303.224668910286L333.55919976806643,336.3307150165678L357.38485689435686,273.21145449764845L381.2105140206473,329.68663078979745L405.03617114693776,307.00487610504143L428.8618282732282,334.03963385160483L452.68748539951866,353.3992952713533L476.51314252580914,342.9749015465828L500.33879965209957,328.9992552886862L524.1644567783901,363.36547276313115L547.9901139046805,352.71202207348676L571.815771030971,355.57579680225695L595.6414281572614,351.79558960750154L619.4670852835519,355.00310323844974L643.2927424098424,355.11758056926436L667.1183995361329,333.92515652079015L690.9440566624233,340.34018378268655L714.7697137887137,360.95991426735355L738.5953709150042,342.4021056795309L762.4210280412946,338.6217961815308L786.246685167585,346.0678355434717L810.0723422938755,338.1635799485382L833.897999420166,324.8753091917528L857.7236565464564,336.55987428468643L881.549313672747,349.6189857733532L905.3749707990373,352.4828628053681L929.2006279253278,352.71202207348676L953.0262850516183,347.9007004754421L976.8519421779088,348.3589167084347L1000.6775993041991,340.22560414862727L1024.5032564304897,331.2903364536492L1048.3289135567802,340.5692407475605L1072.1545706830707,338.50731885071616L1095.980227809361,332.7795647866863L1119.8058849356514,328.65561868975294L1143.631542061942,335.29980521976796L1167.4571991882324,329.8012104238568L1191.2828563145229,325.3335254247454L1215.1085134408133,338.3927392166568L1238.9341705671038,339.76738791563463L1262.7598276933943,358.4396738342719L1286.5854848196848,352.5974424394274L1310.411141945975,335.4142825505826L1334.2367990722657,328.31198209081964L1358.062456198556,331.51949572176784L1381.8881133248467,348.2443370743754L1405.713770451137,338.0491026177236L1429.5394275774274,324.7608318609382L1453.365084703718,336.10165805169385L1477.1907418300084,325.9063212917973L1501.0163989562989,345.26598271154586L1524.8420560825891,337.93452298366424" fill="none"></path></g><g><path style="fill: none;" stroke="rgb(255, 112, 67)" stroke-width="2px" d="M119.12828563145229,198.10583431394275L142.95394275774274,116.05106162778382L166.77959988403322,101.12931496294019L190.60525701032364,91.62073988468674L214.4309141366141,85.2053034098116L238.25657126290457,79.93545866904026L262.08222838919505,75.41027924640983L285.9078855154855,72.48890779087586L309.73354264177595,68.07830800230477L333.55919976806643,63.72499803076335L357.38485689435686,62.20702248596669L381.2105140206473,61.004140934833174L405.03617114693776,57.73913288036593L428.8618282732282,58.168704204843685L452.68748539951866,54.560059551443175L476.51314252580914,53.32843078855016L500.33879965209957,53.78674932478746L524.1644567783901,52.3833534140501L547.9901139046805,51.89649227254271L571.815771030971,48.37368004144196L595.6414281572614,49.4046921414865L619.4670852835519,48.488259675501304L643.2927424098424,46.48342298919721L667.1183995361329,47.22808830733811L690.9440566624233,45.79604748808594L714.7697137887137,44.822222901826386L738.5953709150042,44.36400666883382L762.4210280412946,43.27570475175964L786.246685167585,44.07765988693017L810.0723422938755,44.650455753982094L833.897999420166,43.10383530067062L857.7236565464564,41.72908429844812L881.549313672747,41.299512973970366L905.3749707990373,40.583492564344276L929.2006279253278,40.38297820474048L953.0262850516183,40.78400692394811L976.8519421779088,40.182566148381376L1000.6775993041991,39.92476197174786L1024.5032564304897,39.15145174509215L1048.3289135567802,38.836460054673694L1072.1545706830707,38.14908455356247L1095.980227809361,38.89374987170337L1119.8058849356514,39.81018233768856L1143.631542061942,37.490353960966054L1167.4571991882324,38.46407624398088L1191.2828563145229,37.80534565138447L1215.1085134408133,36.28747240983254L1238.9341705671038,36.77433355133997L1262.7598276933943,35.74321914805074L1286.5854848196848,36.02966823319907L1310.411141945975,35.80050896508042L1334.2367990722657,36.344659923617485L1358.062456198556,35.084488555454335L1381.8881133248467,34.19670099798395L1405.713770451137,35.084488555454335L1429.5394275774274,34.16805608946914L1453.365084703718,34.3112806320433L1477.1907418300084,34.7122070480062L1501.0163989562989,33.07965186915024L1524.8420560825891,35.37093764060261" fill="none"></path></g></g></g></g></g></g><g transform="translate(49, 377)" clip-path="url(#clip_1)"><clipPath id="clip_1"><rect width="1667" height="22"></rect></clipPath><g><g><line x1="0" y1="0" x2="0" y2="5" style="visibility: inherit;" fill="rgb(0, 0, 0)" stroke="rgb(204, 204, 204)" stroke-width="1px"></line><line x1="119.12828563145229" y1="0" x2="119.12828563145229" y2="5" style="visibility: inherit;" fill="rgb(0, 0, 0)" stroke="rgb(204, 204, 204)" stroke-width="1px"></line><line x1="238.25657126290457" y1="0" x2="238.25657126290457" y2="5" style="visibility: inherit;" fill="rgb(0, 0, 0)" stroke="rgb(204, 204, 204)" stroke-width="1px"></line><line x1="357.38485689435686" y1="0" x2="357.38485689435686" y2="5" style="visibility: inherit;" fill="rgb(0, 0, 0)" stroke="rgb(204, 204, 204)" stroke-width="1px"></line><line x1="476.51314252580914" y1="0" x2="476.51314252580914" y2="5" style="visibility: inherit;" fill="rgb(0, 0, 0)" stroke="rgb(204, 204, 204)" stroke-width="1px"></line><line x1="595.6414281572614" y1="0" x2="595.6414281572614" y2="5" style="visibility: inherit;" fill="rgb(0, 0, 0)" stroke="rgb(204, 204, 204)" stroke-width="1px"></line><line x1="714.7697137887137" y1="0" x2="714.7697137887137" y2="5" style="visibility: inherit;" fill="rgb(0, 0, 0)" stroke="rgb(204, 204, 204)" stroke-width="1px"></line><line x1="833.897999420166" y1="0" x2="833.897999420166" y2="5" style="visibility: inherit;" fill="rgb(0, 0, 0)" stroke="rgb(204, 204, 204)" stroke-width="1px"></line><line x1="953.0262850516183" y1="0" x2="953.0262850516183" y2="5" style="visibility: inherit;" fill="rgb(0, 0, 0)" stroke="rgb(204, 204, 204)" stroke-width="1px"></line><line x1="1072.1545706830707" y1="0" x2="1072.1545706830707" y2="5" style="visibility: inherit;" fill="rgb(0, 0, 0)" stroke="rgb(204, 204, 204)" stroke-width="1px"></line><line x1="1191.2828563145229" y1="0" x2="1191.2828563145229" y2="5" style="visibility: inherit;" fill="rgb(0, 0, 0)" stroke="rgb(204, 204, 204)" stroke-width="1px"></line><line x1="1310.411141945975" y1="0" x2="1310.411141945975" y2="5" style="visibility: inherit;" fill="rgb(0, 0, 0)" stroke="rgb(204, 204, 204)" stroke-width="1px"></line><line x1="1429.5394275774274" y1="0" x2="1429.5394275774274" y2="5" style="visibility: inherit;" fill="rgb(0, 0, 0)" stroke="rgb(204, 204, 204)" stroke-width="1px"></line><line x1="1548.6677132088798" y1="0" x2="1548.6677132088798" y2="5" style="visibility: inherit;" fill="rgb(0, 0, 0)" stroke="rgb(204, 204, 204)" stroke-width="1px"></line><line x1="1667.795998840332" y1="0" x2="1667.795998840332" y2="5" style="visibility: inherit;" fill="rgb(0, 0, 0)" stroke="rgb(204, 204, 204)" stroke-width="1px"></line></g><g transform="translate(0, 8)"><text style="text-anchor: middle; visibility: hidden; font-family: Roboto, sans-serif; font-size: 12px; font-weight: 200;" x="0" y="0" dx="0em" dy="0.95em" fill="rgb(255, 255, 255)" stroke="none" stroke-width="1px">-5</text><text style="text-anchor: middle; visibility: inherit; font-family: Roboto, sans-serif; font-size: 12px; font-weight: 200;" x="119.12828563145229" y="0" dx="0em" dy="0.95em" fill="rgb(255, 255, 255)" stroke="none" stroke-width="1px">0</text><text style="text-anchor: middle; visibility: inherit; font-family: Roboto, sans-serif; font-size: 12px; font-weight: 200;" x="238.25657126290457" y="0" dx="0em" dy="0.95em" fill="rgb(255, 255, 255)" stroke="none" stroke-width="1px">5</text><text style="text-anchor: middle; visibility: inherit; font-family: Roboto, sans-serif; font-size: 12px; font-weight: 200;" x="357.38485689435686" y="0" dx="0em" dy="0.95em" fill="rgb(255, 255, 255)" stroke="none" stroke-width="1px">10</text><text style="text-anchor: middle; visibility: inherit; font-family: Roboto, sans-serif; font-size: 12px; font-weight: 200;" x="476.51314252580914" y="0" dx="0em" dy="0.95em" fill="rgb(255, 255, 255)" stroke="none" stroke-width="1px">15</text><text style="text-anchor: middle; visibility: inherit; font-family: Roboto, sans-serif; font-size: 12px; font-weight: 200;" x="595.6414281572614" y="0" dx="0em" dy="0.95em" fill="rgb(255, 255, 255)" stroke="none" stroke-width="1px">20</text><text style="text-anchor: middle; visibility: inherit; font-family: Roboto, sans-serif; font-size: 12px; font-weight: 200;" x="714.7697137887137" y="0" dx="0em" dy="0.95em" fill="rgb(255, 255, 255)" stroke="none" stroke-width="1px">25</text><text style="text-anchor: middle; visibility: inherit; font-family: Roboto, sans-serif; font-size: 12px; font-weight: 200;" x="833.897999420166" y="0" dx="0em" dy="0.95em" fill="rgb(255, 255, 255)" stroke="none" stroke-width="1px">30</text><text style="text-anchor: middle; visibility: inherit; font-family: Roboto, sans-serif; font-size: 12px; font-weight: 200;" x="953.0262850516183" y="0" dx="0em" dy="0.95em" fill="rgb(255, 255, 255)" stroke="none" stroke-width="1px">35</text><text style="text-anchor: middle; visibility: inherit; font-family: Roboto, sans-serif; font-size: 12px; font-weight: 200;" x="1072.1545706830707" y="0" dx="0em" dy="0.95em" fill="rgb(255, 255, 255)" stroke="none" stroke-width="1px">40</text><text style="text-anchor: middle; visibility: inherit; font-family: Roboto, sans-serif; font-size: 12px; font-weight: 200;" x="1191.2828563145229" y="0" dx="0em" dy="0.95em" fill="rgb(255, 255, 255)" stroke="none" stroke-width="1px">45</text><text style="text-anchor: middle; visibility: inherit; font-family: Roboto, sans-serif; font-size: 12px; font-weight: 200;" x="1310.411141945975" y="0" dx="0em" dy="0.95em" fill="rgb(255, 255, 255)" stroke="none" stroke-width="1px">50</text><text style="text-anchor: middle; visibility: inherit; font-family: Roboto, sans-serif; font-size: 12px; font-weight: 200;" x="1429.5394275774274" y="0" dx="0em" dy="0.95em" fill="rgb(255, 255, 255)" stroke="none" stroke-width="1px">55</text><text style="text-anchor: middle; visibility: inherit; font-family: Roboto, sans-serif; font-size: 12px; font-weight: 200;" x="1548.6677132088798" y="0" dx="0em" dy="0.95em" fill="rgb(255, 255, 255)" stroke="none" stroke-width="1px">60</text><text style="text-anchor: middle; visibility: hidden; font-family: Roboto, sans-serif; font-size: 12px; font-weight: 200;" x="1667.795998840332" y="0" dx="0em" dy="0.95em" fill="rgb(255, 255, 255)" stroke="none" stroke-width="1px">65</text></g><line x1="0" y1="0" x2="1667.795998840332" y2="0" fill="rgb(0, 0, 0)" stroke="rgb(204, 204, 204)" stroke-width="1px"></line></g></g></g></g></svg>